<svg xmlns="http://www.w3.org/2000/svg" width="1200" height="360" viewBox="0 0 1200 360" role="img" aria-labelledby="title desc"><title id="title">Enzo Pinotti — Product Systems, Delivery, AI and Infrastructure</title><desc id="desc">Light engineering control-room banner connecting business context, requirements, build, AI, validation and release.</desc><defs><linearGradient id="bg" x1="0" y1="0" x2="1" y2="1"><stop offset="0" stop-color="#FFFFFF"/><stop offset="0.55" stop-color="#F8FAFC"/><stop offset="1" stop-color="#EEF2FF"/></linearGradient><linearGradient id="accent" x1="0" y1="0" x2="1" y2="0"><stop offset="0" stop-color="#7C3AED"/><stop offset="0.5" stop-color="#0284C7"/><stop offset="1" stop-color="#0891B2"/></linearGradient><pattern id="grid" width="28" height="28" patternUnits="userSpaceOnUse"><path d="M28 0H0V28" fill="none" stroke="#94A3B8" stroke-opacity="0.16" stroke-width="1"/></pattern></defs><rect width="1200" height="360" rx="28" fill="url(#bg)"/><rect width="1200" height="360" rx="28" fill="url(#grid)"/><circle cx="1020" cy="50" r="180" fill="#8B5CF6" opacity="0.05"/><circle cx="1115" cy="275" r="160" fill="#06B6D4" opacity="0.05"/><g transform="translate(64 54)"><rect width="92" height="26" rx="13" fill="#F1F5F9" stroke="#CBD5E1"/><circle cx="14" cy="13" r="4" fill="#0891B2"/><text x="27" y="17" fill="#64748B" font-family="Inter,Segoe UI,Arial,sans-serif" font-size="11" font-weight="700" letter-spacing="1.2">SYSTEMS</text><text x="0" y="90" fill="#0F172A" font-family="Inter,Segoe UI,Arial,sans-serif" font-size="48" font-weight="800" letter-spacing="-1.6">ENZO PINOTTI</text><rect x="0" y="108" width="430" height="4" rx="2" fill="url(#accent)"/><text x="0" y="146" fill="#6D28D9" font-family="Inter,Segoe UI,Arial,sans-serif" font-size="17" font-weight="700" letter-spacing="1.2">PRODUCT SYSTEMS · DELIVERY · AI · INFRASTRUCTURE</text><text x="0" y="188" fill="#64748B" font-family="Inter,Segoe UI,Arial,sans-serif" font-size="16">I connect business context, system design and delivery into</text><text x="0" y="213" fill="#1E293B" font-family="Inter,Segoe UI,Arial,sans-serif" font-size="16" font-weight="600">software that teams can understand, verify and trust.</text><g transform="translate(0 246)"><rect width="142" height="34" rx="9" fill="#F8FAFC" stroke="#CBD5E1"/><text x="71" y="22" text-anchor="middle" fill="#0369A1" font-family="Inter,Segoe UI,Arial,sans-serif" font-size="11" font-weight="700">PRODUCT SYSTEMS</text><rect x="154" width="118" height="34" rx="9" fill="#F8FAFC" stroke="#CBD5E1"/><text x="213" y="22" text-anchor="middle" fill="#7C3AED" font-family="Inter,Segoe UI,Arial,sans-serif" font-size="11" font-weight="700">DELIVERY</text><rect x="284" width="132" height="34" rx="9" fill="#F8FAFC" stroke="#CBD5E1"/><text x="350" y="22" text-anchor="middle" fill="#B45309" font-family="Inter,Segoe UI,Arial,sans-serif" font-size="11" font-weight="700">AI / INFRA</text></g></g><g transform="translate(690 42)"><rect width="438" height="276" rx="22" fill="#FFFFFF" fill-opacity="0.84" stroke="#CBD5E1"/><text x="24" y="34" fill="#64748B" font-family="ui-monospace,SFMono-Regular,Menlo,monospace" font-size="11" letter-spacing="1">DELIVERY SYSTEM MAP</text><circle cx="398" cy="28" r="4" fill="#0891B2"/><circle cx="414" cy="28" r="4" fill="#7C3AED"/><g stroke="#CBD5E1" stroke-width="2" fill="none"><path d="M68 92 C118 64 145 70 188 105"/><path d="M188 105 C225 78 262 78 300 105"/><path d="M300 105 C342 125 354 151 346 184"/><path d="M188 105 C182 145 184 173 190 210"/><path d="M68 92 C82 145 111 176 148 210"/><path d="M148 210 C165 219 176 219 190 210"/><path d="M190 210 C250 226 307 217 346 184"/></g><circle cx="68" cy="92" r="31" fill="#EFF6FF" stroke="#0284C7" stroke-width="2"/><text x="68" y="88" text-anchor="middle" fill="#075985" font-family="ui-monospace,SFMono-Regular,Menlo,monospace" font-size="10" font-weight="700">BUSINESS</text><text x="68" y="104" text-anchor="middle" fill="#64748B" font-family="ui-monospace,SFMono-Regular,Menlo,monospace" font-size="8">PROCESS</text><circle cx="188" cy="105" r="35" fill="#F5F3FF" stroke="#7C3AED" stroke-width="2"/><text x="188" y="101" text-anchor="middle" fill="#5B21B6" font-family="ui-monospace,SFMono-Regular,Menlo,monospace" font-size="10" font-weight="700">CONTRACT</text><text x="188" y="117" text-anchor="middle" fill="#7C6CA6" font-family="ui-monospace,SFMono-Regular,Menlo,monospace" font-size="8">REQS</text><circle cx="300" cy="105" r="32" fill="#EFF6FF" stroke="#2563EB" stroke-width="2"/><text x="300" y="101" text-anchor="middle" fill="#1D4ED8" font-family="ui-monospace,SFMono-Regular,Menlo,monospace" font-size="10" font-weight="700">BUILD</text><text x="300" y="117" text-anchor="middle" fill="#64748B" font-family="ui-monospace,SFMono-Regular,Menlo,monospace" font-size="8">SYSTEM</text><circle cx="148" cy="210" r="31" fill="#F5F3FF" stroke="#8B5CF6" stroke-width="2"/><text x="148" y="206" text-anchor="middle" fill="#6D28D9" font-family="ui-monospace,SFMono-Regular,Menlo,monospace" font-size="11" font-weight="700">AI</text><text x="148" y="222" text-anchor="middle" fill="#7C6CA6" font-family="ui-monospace,SFMono-Regular,Menlo,monospace" font-size="8">TOOLS</text><circle cx="190" cy="210" r="24" fill="#FFFBEB" stroke="#D97706" stroke-width="2"/><text x="190" y="214" text-anchor="middle" fill="#92400E" font-family="ui-monospace,SFMono-Regular,Menlo,monospace" font-size="9" font-weight="800">SHIP</text><circle cx="346" cy="184" r="31" fill="#ECFEFF" stroke="#0891B2" stroke-width="2"/><text x="346" y="180" text-anchor="middle" fill="#155E75" font-family="ui-monospace,SFMono-Regular,Menlo,monospace" font-size="10" font-weight="700">VERIFY</text><text x="346" y="196" text-anchor="middle" fill="#64748B" font-family="ui-monospace,SFMono-Regular,Menlo,monospace" font-size="8">UAT / CI</text><g transform="translate(24 248)"><text fill="#64748B" font-family="ui-monospace,SFMono-Regular,Menlo,monospace" font-size="9">discover → define → build → verify → ship → learn</text><circle cx="388" cy="-4" r="3" fill="#D97706"/></g></g></svg>
